<svg width="16" height="16" viewBox="0 0 16 16" fill="none" xmlns="http://www.w3.org/2000/svg">
<path d="M8 12C10.2091 12 12 10.2091 12 8C12 5.79086 10.2091 4 8 4C5.79086 4 4 5.79086 4 8C4 10.2091 5.79086 12 8 12Z" fill="#3999FE"/>
<path fill-rule="evenodd" clip-rule="evenodd" d="M8 13.25C9.39239 13.25 10.7277 12.6969 11.7123 11.7123C12.6969 10.7277 13.25 9.39239 13.25 8C13.25 6.60761 12.6969 5.27226 11.7123 4.28769C10.7277 3.30312 9.39239 2.75 8 2.75C6.60761 2.75 5.27226 3.30312 4.28769 4.28769C3.30312 5.27226 2.75 6.60761 2.75 8C2.75 9.39239 3.30312 10.7277 4.28769 11.7123C5.27226 12.6969 6.60761 13.25 8 13.25V13.25ZM8 14C9.5913 14 11.1174 13.3679 12.2426 12.2426C13.3679 11.1174 14 9.5913 14 8C14 6.4087 13.3679 4.88258 12.2426 3.75736C11.1174 2.63214 9.5913 2 8 2C6.4087 2 4.88258 2.63214 3.75736 3.75736C2.63214 4.88258 2 6.4087 2 8C2 9.5913 2.63214 11.1174 3.75736 12.2426C4.88258 13.3679 6.4087 14 8 14V14Z" fill="black" fill-opacity="0.5"/>
</svg>
